<svg width="49" height="47" viewBox="0 0 49 47" fill="none" xmlns="http://www.w3.org/2000/svg">
<path d="M24.5 0C10.9719 0 0 10.746 0 24C0 34.604 7.01925 43.6 16.756 46.774C17.9789 46.996 18.375 46.252 18.375 45.62V41.152C11.5599 42.604 10.141 38.32 10.141 38.32C9.02621 35.546 7.41942 34.808 7.41942 34.808C5.19604 33.318 7.58888 33.35 7.58888 33.35C10.0491 33.518 11.3435 35.824 11.3435 35.824C13.5281 39.492 17.0745 38.432 18.473 37.818C18.6915 36.268 19.3264 35.208 20.0288 34.61C14.5877 34 8.86696 31.942 8.86696 22.748C8.86696 20.126 9.8245 17.986 11.3905 16.306C11.1373 15.7 10.2982 13.258 11.6293 9.954C11.6293 9.954 13.6873 9.31 18.3689 12.414C20.3228 11.882 22.4175 11.616 24.5 11.606C26.5825 11.616 28.6793 11.882 30.6373 12.414C35.3147 9.31 37.3686 9.954 37.3686 9.954C38.7018 13.26 37.8627 15.702 37.6095 16.306C39.1816 17.986 40.131 20.128 40.131 22.748C40.131 31.966 34.4 33.996 28.9447 34.59C29.8226 35.334 30.625 36.794 30.625 39.034V45.62C30.625 46.258 31.017 47.008 32.2604 46.772C41.9889 43.594 49 34.6 49 24C49 10.746 38.0301 0 24.5 0Z" fill="black"/>
</svg>
